<mxfile host="drawio-plugin" modified="2022-04-22T16:54:49.980Z" agent="5.0 (Windows NT 6.2; Win64; x64) AppleWebKit/537.36 (KHTML, like Gecko) Chrome/89.0.4389.114 Safari/537.36" etag="tEVjuDfUOYqAiLrJUdpQ" version="15.5.4" type="embed"><diagram id="s7_xI_XRrdksiuUolE6K" name="Page-1"><mxGraphModel dx="1217" dy="905" grid="1" gridSize="10" guides="1" tooltips="1" connect="1" arrows="1" fold="1" page="1" pageScale="1" pageWidth="850" pageHeight="1100" math="0" shadow="0"><root><mxCell id="0"/><mxCell id="1" parent="0"/><mxCell id="Q9tMfbPTtKhhxRTB1rh9-1" value="entities" style="rounded=0;whiteSpace=wrap;html=1;" parent="1" vertex="1"><mxGeometry x="550" y="320" width="120" height="60" as="geometry"/></mxCell><mxCell id="Q9tMfbPTtKhhxRTB1rh9-2" value="exceptions" style="whiteSpace=wrap;html=1;" parent="1" vertex="1"><mxGeometry x="200" y="170" width="120" height="60" as="geometry"/></mxCell><mxCell id="Q9tMfbPTtKhhxRTB1rh9-6" value="view" style="whiteSpace=wrap;html=1;" parent="1" vertex="1"><mxGeometry x="160" y="30" width="120" height="60" as="geometry"/></mxCell><mxCell id="Q9tMfbPTtKhhxRTB1rh9-7" value="factories" style="whiteSpace=wrap;html=1;" parent="1" vertex="1"><mxGeometry x="350" y="170" width="120" height="60" as="geometry"/></mxCell><mxCell id="Q9tMfbPTtKhhxRTB1rh9-8" value="repository" style="whiteSpace=wrap;html=1;" parent="1" vertex="1"><mxGeometry x="150" y="290" width="120" height="60" as="geometry"/></mxCell><mxCell id="Q9tMfbPTtKhhxRTB1rh9-10" value="impl" style="whiteSpace=wrap;html=1;" parent="1" vertex="1"><mxGeometry x="335" y="340" width="120" height="60" as="geometry"/></mxCell><mxCell id="Q9tMfbPTtKhhxRTB1rh9-13" value="util" style="whiteSpace=wrap;html=1;" parent="1" vertex="1"><mxGeometry x="150" y="470" width="120" height="60" as="geometry"/></mxCell><mxCell id="Q9tMfbPTtKhhxRTB1rh9-17" value="" style="endArrow=none;html=1;rounded=0;" parent="1" edge="1"><mxGeometry width="50" height="50" relative="1" as="geometry"><mxPoint y="100" as="sourcePoint"/><mxPoint x="850" y="100" as="targetPoint"/></mxGeometry></mxCell><mxCell id="Q9tMfbPTtKhhxRTB1rh9-19" value="" style="endArrow=none;html=1;rounded=0;" parent="1" edge="1"><mxGeometry width="50" height="50" relative="1" as="geometry"><mxPoint y="270" as="sourcePoint"/><mxPoint x="850" y="270" as="targetPoint"/></mxGeometry></mxCell><mxCell id="Q9tMfbPTtKhhxRTB1rh9-20" value="" style="endArrow=none;html=1;rounded=0;" parent="1" edge="1"><mxGeometry width="50" height="50" relative="1" as="geometry"><mxPoint y="450" as="sourcePoint"/><mxPoint x="850" y="450" as="targetPoint"/></mxGeometry></mxCell><mxCell id="Q9tMfbPTtKhhxRTB1rh9-21" value="" style="endArrow=none;html=1;rounded=0;" parent="1" edge="1"><mxGeometry width="50" height="50" relative="1" as="geometry"><mxPoint y="540" as="sourcePoint"/><mxPoint x="850" y="540" as="targetPoint"/></mxGeometry></mxCell><mxCell id="Q9tMfbPTtKhhxRTB1rh9-22" value="" style="endArrow=none;html=1;rounded=0;" parent="1" edge="1"><mxGeometry width="50" height="50" relative="1" as="geometry"><mxPoint y="10" as="sourcePoint"/><mxPoint x="850" y="10" as="targetPoint"/></mxGeometry></mxCell><mxCell id="Q9tMfbPTtKhhxRTB1rh9-23" value="User Interface" style="text;html=1;align=center;verticalAlign=middle;resizable=0;points=[];autosize=1;strokeColor=none;fillColor=none;" parent="1" vertex="1"><mxGeometry y="10" width="90" height="20" as="geometry"/></mxCell><mxCell id="Q9tMfbPTtKhhxRTB1rh9-24" value="Application Logic" style="text;html=1;align=center;verticalAlign=middle;resizable=0;points=[];autosize=1;strokeColor=none;fillColor=none;" parent="1" vertex="1"><mxGeometry y="100" width="110" height="20" as="geometry"/></mxCell><mxCell id="Q9tMfbPTtKhhxRTB1rh9-25" value="Business Objects" style="text;html=1;align=center;verticalAlign=middle;resizable=0;points=[];autosize=1;strokeColor=none;fillColor=none;" parent="1" vertex="1"><mxGeometry y="270" width="110" height="20" as="geometry"/></mxCell><mxCell id="Q9tMfbPTtKhhxRTB1rh9-26" value="IN" style="text;html=1;align=center;verticalAlign=middle;resizable=0;points=[];autosize=1;strokeColor=none;fillColor=none;" parent="1" vertex="1"><mxGeometry y="450" width="30" height="20" as="geometry"/></mxCell><mxCell id="Q9tMfbPTtKhhxRTB1rh9-28" value="" style="whiteSpace=wrap;html=1;" parent="1" vertex="1"><mxGeometry x="250" y="20" width="30" height="10" as="geometry"/></mxCell><mxCell id="Q9tMfbPTtKhhxRTB1rh9-29" value="" style="whiteSpace=wrap;html=1;" parent="1" vertex="1"><mxGeometry x="480" y="120" width="30" height="10" as="geometry"/></mxCell><mxCell id="Q9tMfbPTtKhhxRTB1rh9-30" value="" style="whiteSpace=wrap;html=1;" parent="1" vertex="1"><mxGeometry x="290" y="160" width="30" height="10" as="geometry"/></mxCell><mxCell id="Q9tMfbPTtKhhxRTB1rh9-31" value="" style="whiteSpace=wrap;html=1;" parent="1" vertex="1"><mxGeometry x="440" y="160" width="30" height="10" as="geometry"/></mxCell><mxCell id="Q9tMfbPTtKhhxRTB1rh9-33" value="" style="whiteSpace=wrap;html=1;" parent="1" vertex="1"><mxGeometry x="240" y="280" width="30" height="10" as="geometry"/></mxCell><mxCell id="Q9tMfbPTtKhhxRTB1rh9-35" value="" style="whiteSpace=wrap;html=1;" parent="1" vertex="1"><mxGeometry x="425" y="330" width="30" height="10" as="geometry"/></mxCell><mxCell id="Q9tMfbPTtKhhxRTB1rh9-36" value="" style="whiteSpace=wrap;html=1;" parent="1" vertex="1"><mxGeometry x="640" y="310" width="30" height="10" as="geometry"/></mxCell><mxCell id="Q9tMfbPTtKhhxRTB1rh9-39" value="" style="whiteSpace=wrap;html=1;" parent="1" vertex="1"><mxGeometry x="240" y="460" width="30" height="10" as="geometry"/></mxCell><mxCell id="Q9tMfbPTtKhhxRTB1rh9-40" value="control" style="text;html=1;align=center;verticalAlign=middle;resizable=0;points=[];autosize=1;strokeColor=none;fillColor=none;" parent="1" vertex="1"><mxGeometry x="150" y="130" width="50" height="20" as="geometry"/></mxCell><mxCell id="Q9tMfbPTtKhhxRTB1rh9-41" value="" style="endArrow=none;html=1;rounded=0;" parent="1" edge="1"><mxGeometry width="50" height="50" relative="1" as="geometry"><mxPoint x="150" y="250" as="sourcePoint"/><mxPoint x="150" y="130" as="targetPoint"/><Array as="points"><mxPoint x="150" y="190"/></Array></mxGeometry></mxCell><mxCell id="Q9tMfbPTtKhhxRTB1rh9-42" value="" style="endArrow=none;html=1;rounded=0;" parent="1" edge="1"><mxGeometry width="50" height="50" relative="1" as="geometry"><mxPoint x="150" y="250" as="sourcePoint"/><mxPoint x="510" y="250" as="targetPoint"/></mxGeometry></mxCell><mxCell id="Q9tMfbPTtKhhxRTB1rh9-43" value="" style="endArrow=none;html=1;rounded=0;entryX=1;entryY=1;entryDx=0;entryDy=0;exitX=-0.007;exitY=0.017;exitDx=0;exitDy=0;exitPerimeter=0;" parent="1" source="Q9tMfbPTtKhhxRTB1rh9-40" target="Q9tMfbPTtKhhxRTB1rh9-29" edge="1"><mxGeometry width="50" height="50" relative="1" as="geometry"><mxPoint x="320" y="160" as="sourcePoint"/><mxPoint x="370" y="110" as="targetPoint"/></mxGeometry></mxCell><mxCell id="Q9tMfbPTtKhhxRTB1rh9-44" value="" style="endArrow=none;html=1;rounded=0;" parent="1" edge="1"><mxGeometry width="50" height="50" relative="1" as="geometry"><mxPoint x="510" y="250" as="sourcePoint"/><mxPoint x="510" y="130" as="targetPoint"/></mxGeometry></mxCell><mxCell id="Q9tMfbPTtKhhxRTB1rh9-65" value="" style="endArrow=none;html=1;rounded=0;" parent="1" edge="1"><mxGeometry width="50" height="50" relative="1" as="geometry"><mxPoint x="315" y="410" as="sourcePoint"/><mxPoint x="315" y="290" as="targetPoint"/></mxGeometry></mxCell><mxCell id="Q9tMfbPTtKhhxRTB1rh9-66" value="dtos" style="text;html=1;align=center;verticalAlign=middle;resizable=0;points=[];autosize=1;strokeColor=none;fillColor=none;" parent="1" vertex="1"><mxGeometry x="320" y="290" width="40" height="20" as="geometry"/></mxCell><mxCell id="Q9tMfbPTtKhhxRTB1rh9-67" value="" style="endArrow=none;html=1;rounded=0;" parent="1" edge="1"><mxGeometry width="50" height="50" relative="1" as="geometry"><mxPoint x="500" y="410" as="sourcePoint"/><mxPoint x="315" y="410" as="targetPoint"/></mxGeometry></mxCell><mxCell id="Q9tMfbPTtKhhxRTB1rh9-68" value="" style="endArrow=none;html=1;rounded=0;startArrow=none;exitX=0;exitY=1;exitDx=0;exitDy=0;" parent="1" source="Q9tMfbPTtKhhxRTB1rh9-71" edge="1"><mxGeometry width="50" height="50" relative="1" as="geometry"><mxPoint x="605" y="290" as="sourcePoint"/><mxPoint x="315" y="290" as="targetPoint"/></mxGeometry></mxCell><mxCell id="Q9tMfbPTtKhhxRTB1rh9-69" value="" style="endArrow=none;html=1;rounded=0;" parent="1" edge="1"><mxGeometry width="50" height="50" relative="1" as="geometry"><mxPoint x="500" y="410" as="sourcePoint"/><mxPoint x="500" y="290" as="targetPoint"/></mxGeometry></mxCell><mxCell id="Q9tMfbPTtKhhxRTB1rh9-71" value="" style="whiteSpace=wrap;html=1;" parent="1" vertex="1"><mxGeometry x="470" y="280" width="30" height="10" as="geometry"/></mxCell></root></mxGraphModel></diagram></mxfile>